<svg version="1.1" xmlns="http://www.w3.org/2000/svg" xmlns:xlink="http://www.w3.org/1999/xlink" viewBox="0 0 171 171"><g fill="none" fill-rule="nonzero" stroke="none" stroke-width="1" stroke-linecap="butt" stroke-linejoin="miter" stroke-miterlimit="10" stroke-dasharray="" stroke-dashoffset="0" font-family="none" font-weight="none" font-size="none" text-anchor="none" style="mix-blend-mode: normal"><path d="M0,171.99654v-171.99654h171.99654v171.99654z" fill="none"></path><g id="Layer_1"><path d="M85.5,82.82813c-15.21132,0 -29.5122,-5.92355 -40.26816,-16.67951l-14.27616,-14.2765c-2.08707,-2.08673 -2.08707,-5.47033 0,-7.55706c2.08673,-2.08707 5.47033,-2.08707 7.55706,0l14.2765,14.27616c8.73737,8.73737 20.35434,13.54941 32.71076,13.54941c12.35642,0 23.9734,-4.81205 32.71076,-13.54941l14.2765,-14.27616c2.08673,-2.08707 5.47033,-2.08707 7.55706,0c2.08707,2.08673 2.08707,5.47033 0,7.55706l-14.27616,14.2765c-10.75597,10.75597 -25.05684,16.67951 -40.26816,16.67951z" fill="#ffffff"></path><path d="M140.04399,44.31538c-2.08673,-2.08707 -5.47033,-2.08707 -7.55706,0l-14.2765,14.27616c-8.73703,8.73703 -20.35401,13.54908 -32.71043,13.54908c-12.35642,0 -23.9734,-4.81205 -32.71076,-13.54941l-14.2765,-14.27616c-2.08673,-2.08707 -5.47033,-2.08707 -7.55706,0l3.7787,3.7787l14.27616,14.27616c9.67753,9.67753 22.80312,15.11446 36.48946,15.11446v0c13.68601,0 26.81193,-5.43693 36.48946,-15.11446l14.27616,-14.27616z" fill="#e74c3c"></path><circle cx="104" cy="88" transform="scale(0.33398,0.33398)" r="56" fill="#f5871e"></circle><path d="M45.42188,53.4375h-21.375c-2.95142,0 -5.34375,-2.39233 -5.34375,-5.34375v0c0,-2.95142 2.39233,-5.34375 5.34375,-5.34375h21.375c2.95142,0 5.34375,2.39233 5.34375,5.34375v0c0,2.95142 -2.39233,5.34375 -5.34375,5.34375z" fill="#f5871e"></path><path d="M50.76563,149.625h-32.0625v-2.67187c0,-2.95142 2.39233,-5.34375 5.34375,-5.34375h21.375c2.95142,0 5.34375,2.39233 5.34375,5.34375z" fill="#fabe19"></path><path d="M53.4375,160.3125h-37.40625c-1.47554,0 -2.67187,-1.19633 -2.67187,-2.67187v-2.67187c0,-2.95142 2.39233,-5.34375 5.34375,-5.34375h32.0625c2.95142,0 5.34375,2.39233 5.34375,5.34375v2.67188c0,1.47554 -1.19633,2.67188 -2.67187,2.67188z" fill="#f5871e"></path><rect x="72" y="160" transform="scale(0.33398,0.33398)" width="64" height="264" fill="#f5871e"></rect><path d="M34.73438,141.60938h-10.6875v-82.82812h5.34375c2.95142,0 5.34375,2.39233 5.34375,5.34375z" fill="#fabe19"></path><path d="M34.73438,10.6875l5.01945,5.01945c5.04984,5.04984 1.47354,13.68367 -5.66771,13.68367h-18.05486v0c0,-10.32947 8.37366,-18.70312 18.70313,-18.70312z" fill="#fabe19"></path><circle cx="90.667" cy="56" transform="scale(0.33398,0.33398)" r="13.333" fill="#ffdc37"></circle><path d="M34.73438,48.09375h-16.03125v0c0,-2.95142 2.39233,-5.34375 5.34375,-5.34375h10.6875z" fill="#fabe19"></path><path d="M53.4375,160.3125h-18.70312v-5.34375h21.375v2.67188c0,1.47554 -1.19633,2.67188 -2.67187,2.67188z" fill="#fabe19"></path><circle cx="408" cy="88" transform="scale(0.33398,0.33398)" r="56" fill="#f5871e"></circle><path d="M146.95313,53.4375h-21.375c-2.95142,0 -5.34375,-2.39233 -5.34375,-5.34375v0c0,-2.95142 2.39233,-5.34375 5.34375,-5.34375h21.375c2.95142,0 5.34375,2.39233 5.34375,5.34375v0c0,2.95142 -2.39233,5.34375 -5.34375,5.34375z" fill="#f5871e"></path><path d="M152.29688,149.625h-32.0625v-2.67187c0,-2.95142 2.39233,-5.34375 5.34375,-5.34375h21.375c2.95142,0 5.34375,2.39233 5.34375,5.34375z" fill="#fabe19"></path><path d="M154.96875,160.3125h-37.40625c-1.47554,0 -2.67187,-1.19633 -2.67187,-2.67187v-2.67187c0,-2.95142 2.39233,-5.34375 5.34375,-5.34375h32.0625c2.95142,0 5.34375,2.39233 5.34375,5.34375v2.67188c0,1.47554 -1.19633,2.67188 -2.67187,2.67188z" fill="#f5871e"></path><rect x="376" y="160" transform="scale(0.33398,0.33398)" width="64" height="264" fill="#f5871e"></rect><path d="M136.26563,141.60938h-10.6875v-82.82812h5.34375c2.95142,0 5.34375,2.39233 5.34375,5.34375z" fill="#fabe19"></path><path d="M136.26563,10.6875l5.01945,5.01945c5.04984,5.04984 1.47354,13.68367 -5.66771,13.68367h-18.05486v0c0,-10.32947 8.37366,-18.70312 18.70313,-18.70312z" fill="#fabe19"></path><circle cx="394.667" cy="56" transform="scale(0.33398,0.33398)" r="13.333" fill="#ffdc37"></circle><path d="M136.26563,48.09375h-16.03125v0c0,-2.95142 2.39233,-5.34375 5.34375,-5.34375h10.6875z" fill="#fabe19"></path><path d="M154.96875,160.3125h-18.70312v-5.34375h21.375v2.67188c0,1.47554 -1.19633,2.67188 -2.67187,2.67188z" fill="#fabe19"></path></g></g></svg>