<?xml version="1.0" encoding="utf-8"?>
<svg width="384px" height="384px" viewBox="0 0 384 384" version="1.1" xmlns:xlink="http://www.w3.org/1999/xlink" xmlns="http://www.w3.org/2000/svg">
  <defs>
    <filter id="filter_1">
      <feColorMatrix in="SourceGraphic" type="matrix" values="0 0 0 0 1 0 0 0 0 1 0 0 0 0 1 0 0 0 1 0" />
    </filter>
  </defs>
  <g id="linkedin" filter="url(#filter_1)">
    <path d="M327.145 327.233L270.281 327.233L270.281 238.129C270.281 216.881 269.849 189.537 240.649 189.537C211.001 189.537 206.473 212.657 206.473 236.561L206.473 327.233L149.609 327.233L149.609 144.001L204.233 144.001L204.233 168.977L204.969 168.977C212.601 154.577 231.161 139.377 258.889 139.377C316.505 139.377 327.161 177.297 327.161 226.657L327.161 327.233L327.145 327.233ZM85.3986 118.929C67.0946 118.929 52.3906 104.113 52.3906 85.8889C52.3906 67.6809 67.1106 52.8809 85.3986 52.8809C103.639 52.8809 118.423 67.6809 118.423 85.8889C118.423 104.113 103.623 118.929 85.3986 118.929L85.3986 118.929ZM113.899 327.232L56.875 327.232L56.875 144L113.899 144L113.899 327.232L113.899 327.232ZM355.6 1.90735e-06L28.336 1.90735e-06C12.672 1.90735e-06 0 12.384 0 27.664L0 356.336C0 371.632 12.672 384 28.336 384L355.552 384C371.2 384 384 371.632 384 356.336L384 27.664C384 12.384 371.2 1.90735e-06 355.552 1.90735e-06L355.6 1.90735e-06L355.6 1.90735e-06Z" id="Shape" fill="#000000" fill-rule="evenodd" stroke="none" />
  </g>
</svg>