<?xml version="1.0" encoding="utf-8"?>
<svg width="1128px" height="1128px" viewBox="0 0 1128 1128" version="1.1" xmlns:xlink="http://www.w3.org/1999/xlink" xmlns="http://www.w3.org/2000/svg">
  <defs>
    <filter id="filter_1">
      <feColorMatrix in="SourceGraphic" type="matrix" values="0 0 0 0 1 0 0 0 0 1 0 0 0 0 1 0 0 0 1 0" />
    </filter>
    <path d="M0 0L1128 0L1128 1128L0 1128L0 0Z" id="path_1" />
    <clipPath id="mask_1">
      <use xlink:href="#path_1" />
    </clipPath>
  </defs>
  <g id="twitter" filter="url(#filter_1)">
    <path d="M0 0L1128 0L1128 1128L0 1128L0 0Z" id="Background" fill="none" fill-rule="evenodd" stroke="none" />
    <g clip-path="url(#mask_1)">
      <path d="M1125.79 214.79C1083.56 233.384 1038.82 245.657 993.016 251.215C1041.24 222.228 1077.35 176.77 1094.68 123.234C1049.98 149.319 1000.44 168.307 947.708 178.882C876.173 102.387 762.156 83.5211 669.794 132.897C577.431 182.273 529.787 287.561 553.66 389.536C361.43 380.465 191.149 288.11 77.08 148.614C56.3433 183.856 45.5272 224.051 45.778 264.939C45.778 345.309 86.668 415.95 148.614 457.451C111.9 456.283 75.9977 446.356 43.898 428.499L43.898 431.319C43.8442 541.418 121.409 636.319 229.338 658.184C195.425 667.271 159.907 668.638 125.396 662.183C155.854 756.414 242.77 820.922 341.784 822.782C259.982 886.982 158.976 921.826 54.9901 921.717C36.66 921.717 18.377 920.636 0 918.568C106.018 986.452 229.29 1022.49 355.179 1022.39C780.67 1022.39 1013.09 670.079 1013.09 365.096C1013.09 355.226 1013.09 345.356 1012.38 335.486C1057.78 302.815 1096.94 262.252 1128 215.73L1125.79 214.79Z" id="Shape" fill="#000000" stroke="none" />
    </g>
  </g>
</svg>